<?xml version="1.0" encoding="UTF-8"?>
<svg width="20px" height="20px" viewBox="0 0 20 20" version="1.1" xmlns="http://www.w3.org/2000/svg" xmlns:xlink="http://www.w3.org/1999/xlink">
    <!-- Generator: Sketch 51.3 (57544) - http://www.bohemiancoding.com/sketch -->
    <title>instagram</title>
    <desc>Created with Sketch.</desc>
    <defs></defs>
    <g id="Desktop" stroke="none" stroke-width="1" fill="none" fill-rule="evenodd">
        <g id="320-menu-2" transform="translate(-125.000000, -261.000000)" fill-rule="nonzero">
            <g id="instagram" transform="translate(123.000000, 259.000000)">
                <rect id="contenedor" x="0" y="0" width="24" height="24"></rect>
                <g id="Group" transform="translate(2.000000, 2.000000)" fill="#0055E5">
                    <path d="M15.076,3.784 C14.7771446,3.78290443 14.4908993,3.90434185 14.284,4.12 C14.178557,4.22346566 14.0931248,4.3455116 14.032,4.48 C13.9752913,4.61690327 13.9467238,4.76382189 13.948,4.912 C13.9446131,5.06036468 13.9732645,5.20771466 14.032,5.344 C14.206956,5.76600156 14.6191693,6.04081046 15.076,6.04 C15.3771452,6.04662099 15.6679194,5.92990586 15.8809126,5.71691262 C16.0939059,5.50391938 16.210621,5.21314515 16.204,4.912 C16.196996,4.61715476 16.0816568,4.33521457 15.88,4.12 C15.6635685,3.91121445 15.3766338,3.79130148 15.076,3.784 Z" id="Shape"></path>
                    <path d="M14.296,0.4 L5.692,0.4 C2.77204678,0.40659879 0.40659879,2.77204678 0.4,5.692 L0.4,14.296 C0.399992515,17.2206384 2.76736907,19.5933832 5.692,19.6 L14.296,19.6 C17.2253183,19.6 19.6,17.2253183 19.6,14.296 L19.6,5.692 C19.5933832,2.76736907 17.2206384,0.399992515 14.296,0.4 Z M14.452,18.172 L5.536,18.172 C3.48150073,18.172 1.816,16.5064993 1.816,14.452 L1.816,5.536 C1.816,3.48150073 3.48150073,1.816 5.536,1.816 L14.452,1.816 C16.5064993,1.816 18.172,3.48150073 18.172,5.536 L18.172,14.452 C18.172,16.5064993 16.5064993,18.172 14.452,18.172 Z" id="Shape"></path>
                    <path d="M14.212,7.156 C13.6543489,6.34256748 12.8757509,5.70553279 11.968,5.32 C11.3472736,5.0493679 10.6771562,4.91044113 10,4.912 C8.6509043,4.91473707 7.35732003,5.44941857 6.4,6.4 C6.17587652,6.63502215 5.97120417,6.8878527 5.788,7.156 C5.41140285,7.70146749 5.15007198,8.31804502 5.02,8.968 C4.94790075,9.30725944 4.91170143,9.65316404 4.912,10 C4.91643325,11.0100233 5.22137855,11.9958739 5.788,12.832 C5.96450245,13.1087539 6.16963144,13.3661707 6.4,13.6 C7.72004651,14.9240385 9.66107684,15.4152305 11.4520172,14.87845 C13.2429576,14.3416695 14.5938297,12.863829 14.968,11.032 C15.0411854,10.6929132 15.0773969,10.3468919 15.076,10 C15.0762986,9.65316404 15.0400993,9.30725944 14.968,8.968 C14.836922,8.32037269 14.5800723,7.70474887 14.212,7.156 Z M10,13.324 C8.64854224,13.3288527 7.42768099,12.5178464 6.90825634,11.2701847 C6.3888317,10.022523 6.67348217,8.58474439 7.62911328,7.62911328 C8.58474439,6.67348217 10.022523,6.3888317 11.2701847,6.90825634 C12.5178464,7.42768099 13.3288527,8.64854224 13.324,10 C13.317418,11.8330612 11.8330612,13.317418 10,13.324 Z" id="Shape"></path>
                </g>
            </g>
        </g>
    </g>
</svg>