<?xml version="1.0" encoding="UTF-8"?>
<svg width="18px" height="17px" viewBox="0 0 18 17" version="1.1" xmlns="http://www.w3.org/2000/svg" xmlns:xlink="http://www.w3.org/1999/xlink">
    <!-- Generator: Sketch 51.3 (57544) - http://www.bohemiancoding.com/sketch -->
    <title>linked in</title>
    <desc>Created with Sketch.</desc>
    <defs></defs>
    <g id="Desktop" stroke="none" stroke-width="1" fill="none" fill-rule="evenodd">
        <g id="320-menu-2" transform="translate(-170.000000, -263.000000)">
            <g id="linked-in" transform="translate(167.000000, 259.000000)">
                <rect id="contenedor" fill-rule="nonzero" x="0" y="0" width="24" height="24"></rect>
                <path d="M3.45378151,9.24727568 L6.96204934,9.24727568 L6.96204934,20.3634589 L3.45378151,20.3634589 L3.45378151,9.24727568 Z M16.5475739,9.14041746 C19.0409325,9.14041746 21,10.7393874 21,14.1827596 L21,20.3634589 L17.0218487,20.3634589 L17.0218487,14.6111683 C17.0218487,13.1053944 16.3997289,12.0777989 15.0310653,12.0777989 C13.9844402,12.0777989 13.4023313,12.7711575 13.1315262,13.4396313 C13.0300352,13.6796964 13.0456492,14.0139333 13.0456492,14.3481702 L13.0456492,20.3634589 L9.10458119,20.3634589 C9.10458119,20.3634589 9.15532665,10.1738683 9.10458119,9.24727568 L13.0456492,9.24727568 L13.0456492,10.9921388 C13.2783952,10.2290052 14.5377609,9.14041746 16.5475739,9.14041746 Z M5.14301979,4 C6.43751694,4 7.23334237,4.82998102 7.2587151,5.92686365 C7.2587151,7.00422879 6.43751694,7.85714286 5.11862293,7.85714286 L5.0932502,7.85714286 C3.82363784,7.85714286 3,7.00715641 3,5.92979127 C3,4.83193277 3.84754676,4 5.14301979,4 Z" id="Fill-88" fill="#0055E5"></path>
            </g>
        </g>
    </g>
</svg>