<?xml version="1.0" encoding="utf-8"?>
<!-- Generator: Adobe Illustrator 22.1.0, SVG Export Plug-In . SVG Version: 6.00 Build 0)  -->
<svg version="1.1" id="Layer_1" xmlns="http://www.w3.org/2000/svg" xmlns:xlink="http://www.w3.org/1999/xlink" x="0px" y="0px"
	 viewBox="0 0 18 17" style="enable-background:new 0 0 18 17;" xml:space="preserve">
<style type="text/css">
	.st0{fill:none;}
</style>
<title>linked in</title>
<desc>Created with Sketch.</desc>
<g id="Desktop">
	<g id="_x33_20-menu-2" transform="translate(-170.000000, -263.000000)">
		<g id="linked-in" transform="translate(167.000000, 259.000000)">
			<rect id="contenedor" class="st0" width="24" height="24"/>
			<path id="Fill-88" d="M3.5,9.2H7v11.1H3.5V9.2z M16.5,9.1c2.5,0,4.5,1.6,4.5,5v6.2h-4v-5.8c0-1.5-0.6-2.5-2-2.5
				c-1,0-1.6,0.7-1.9,1.4C13,13.7,13,14,13,14.3v6H9.1c0,0,0.1-10.2,0-11.1H13V11C13.3,10.2,14.5,9.1,16.5,9.1z M5.1,4
				c1.3,0,2.1,0.8,2.1,1.9c0,1.1-0.8,1.9-2.1,1.9h0C3.8,7.9,3,7,3,5.9C3,4.8,3.8,4,5.1,4z"/>
		</g>
	</g>
</g>
</svg>
