<?xml version="1.0" encoding="utf-8"?>
<!-- Generator: Adobe Illustrator 22.1.0, SVG Export Plug-In . SVG Version: 6.00 Build 0)  -->
<svg version="1.1" id="Layer_1" xmlns="http://www.w3.org/2000/svg" xmlns:xlink="http://www.w3.org/1999/xlink" x="0px" y="0px"
	 viewBox="0 0 24 24" style="enable-background:new 0 0 24 24;" xml:space="preserve">
<title>medium</title>
<desc>Created with Sketch.</desc>
<g id="Desktop">
	<g id="_x31_440-home-v1" transform="translate(-120.000000, -870.000000)">
		<g id="medium" transform="translate(120.000000, 870.000000)">
			<path id="Shape" d="M24,24H0V0h24V24z M20,18.4v-0.3l-1.2-1.2c-0.1-0.1-0.2-0.2-0.1-0.4v-9c0-0.1,0-0.3,0.1-0.4L20,5.9V5.6h-4.4
				l-3.2,7.9L8.8,5.6H4.2v0.3l1.5,1.8C5.8,7.8,5.9,8,5.9,8.2v7.1c0,0.3,0,0.5-0.2,0.7l-1.7,2v0.3h4.8v-0.3l-1.7-2
				c-0.2-0.2-0.3-0.4-0.2-0.7V9.2l4.2,9.1h0.5l3.6-9.1v7.3c0,0.2,0,0.2-0.1,0.4l-1.3,1.3v0.3H20z"/>
		</g>
	</g>
</g>
</svg>
