<?xml version="1.0" encoding="UTF-8"?>
<svg width="19px" height="16px" viewBox="0 0 19 16" version="1.1" xmlns="http://www.w3.org/2000/svg" xmlns:xlink="http://www.w3.org/1999/xlink">
    <!-- Generator: Sketch 51.3 (57544) - http://www.bohemiancoding.com/sketch -->
    <title>twitter</title>
    <desc>Created with Sketch.</desc>
    <defs></defs>
    <g id="Desktop" stroke="none" stroke-width="1" fill="none" fill-rule="evenodd">
        <g id="320-menu-2" transform="translate(-38.000000, -263.000000)">
            <g id="twitter" transform="translate(35.000000, 259.000000)">
                <rect id="contenedor" fill-rule="nonzero" x="0" y="0" width="24" height="24"></rect>
                <path d="M14.5366073,4.18618139 C12.8728292,4.81378139 11.8218394,6.43498139 11.9420847,8.20738139 L11.9825518,8.89138139 L11.3165781,8.80738139 C8.89548613,8.48578139 6.77847591,7.39738139 4.98173431,5.56738139 L4.10301898,4.66018139 L3.87640292,5.33098139 C3.39773431,6.82498139 3.70412847,8.40298139 4.70193285,9.46498139 C5.23378686,10.0517814 5.11354161,10.1357814 4.19667153,9.78658139 C3.87755912,9.67498139 3.59775766,9.59098139 3.57116496,9.63298139 C3.47866861,9.73138139 3.79778102,11.0009814 4.04983358,11.5037814 C4.39553869,12.2021814 5.10082336,12.8861814 5.87316788,13.2917814 L6.52526715,13.6133814 L5.75407883,13.6277814 C5.00948321,13.6277814 4.98289051,13.6421814 5.06266861,13.9361814 C5.32859562,14.8433814 6.3795854,15.8069814 7.55082044,16.2269814 L8.37635036,16.5197814 L7.65834745,16.9661814 C6.59348321,17.6093814 5.34247007,17.9717814 4.09145693,17.9993814 C3.49138686,18.0137814 3,18.0689814 3,18.1109814 C3,18.2501814 4.62446715,19.0313814 5.56792993,19.3397814 C8.40178686,20.2469814 11.7698102,19.8557814 14.2984292,18.3065814 C16.0951708,17.2025814 17.8907562,15.0113814 18.7301606,12.8873814 C19.1833927,11.7569814 19.6354686,9.68938139 19.6354686,8.69938139 C19.6354686,8.05618139 19.6759358,7.97338139 20.4205314,7.20538139 C20.8598891,6.75898139 21.272654,6.27058139 21.3524321,6.13018139 C21.4853956,5.86498139 21.4715212,5.86498139 20.7939854,6.10138139 C19.6632175,6.52018139 19.5025051,6.46498139 20.062108,5.83618139 C20.4737168,5.38978139 20.9674161,4.57978139 20.9674161,4.34218139 C20.9674161,4.30018139 20.7685489,4.36978139 20.5407766,4.49578139 C20.3014423,4.63498139 19.7695883,4.84498139 19.3695416,4.96978139 L18.6515387,5.20738139 L17.9994394,4.74538139 C17.6398599,4.49458139 17.1345985,4.21498139 16.8686715,4.13098139 C16.1876672,3.93538139 15.1493956,3.96298139 14.5366073,4.18618139 Z" id="Shape" fill="#0055E5"></path>
            </g>
        </g>
    </g>
</svg>